<svg xmlns="http://www.w3.org/2000/svg" viewBox="0 0 600 450" width="600" height="450">
  <defs>
    <linearGradient id="cl-bg" x1="0" y1="0" x2="1" y2="1">
      <stop offset="0%" stop-color="#f6fbfa"/>
      <stop offset="100%" stop-color="#e6f6f3"/>
    </linearGradient>
  </defs>

  <rect width="600" height="450" fill="url(#cl-bg)"/>

  <rect x="60" y="70" width="480" height="80" rx="18" fill="#0d9488" opacity="0.08"/>
  <rect x="80" y="90" width="140" height="12" rx="6" fill="#0d9488" opacity="0.5"/>
  <rect x="80" y="112" width="220" height="10" rx="5" fill="#0f172a" opacity="0.15"/>

  <g transform="translate(60,190)">
    <rect width="480" height="200" rx="20" fill="#ffffff" stroke="#0d9488" stroke-opacity="0.15"/>
    <circle cx="40" cy="40" r="18" fill="#0d9488"/>
    <path d="M32 40 h16 M40 32 v16" stroke="#ffffff" stroke-width="3" stroke-linecap="round"/>
    <rect x="70" y="30" width="120" height="10" rx="5" fill="#0f172a" opacity="0.55"/>
    <rect x="70" y="46" width="90" height="8" rx="4" fill="#0f172a" opacity="0.25"/>

    <g transform="translate(0,90)">
      <rect x="20" y="0" width="100" height="70" rx="12" fill="#ccfbf1"/>
      <rect x="140" y="0" width="100" height="70" rx="12" fill="#f0fdfa"/>
      <rect x="260" y="0" width="100" height="70" rx="12" fill="#ccfbf1"/>
      <rect x="380" y="0" width="80" height="70" rx="12" fill="#f0fdfa"/>
    </g>
  </g>
</svg>
