<svg xmlns="http://www.w3.org/2000/svg" viewBox="0 0 600 450" width="600" height="450">
  <defs>
    <linearGradient id="cc-bg" x1="0" y1="0" x2="1" y2="1">
      <stop offset="0%" stop-color="#fbf6f4"/>
      <stop offset="100%" stop-color="#f4e6ea"/>
    </linearGradient>
    <linearGradient id="cc-ring" x1="0" y1="0" x2="1" y2="1">
      <stop offset="0%" stop-color="#7c2d4a"/>
      <stop offset="100%" stop-color="#c96f4a"/>
    </linearGradient>
  </defs>
  <rect width="600" height="450" fill="url(#cc-bg)"/>

  <circle cx="180" cy="200" r="90" fill="url(#cc-ring)"/>
  <circle cx="180" cy="200" r="72" fill="#fbf6f4"/>
  <text x="180" y="216" font-family="Arial, sans-serif" font-size="42" font-weight="600" fill="#7c2d4a" text-anchor="middle">NR</text>

  <text x="320" y="170" font-family="Georgia, serif" font-size="28" fill="#3a2a30" opacity="0.85">Ascent Coaching</text>
  <rect x="320" y="190" width="180" height="8" rx="4" fill="#7c2d4a" opacity="0.5"/>
  <rect x="320" y="210" width="130" height="8" rx="4" fill="#3a2a30" opacity="0.2"/>

  <g transform="translate(320,250)">
    <rect width="240" height="120" rx="14" fill="#ffffff" stroke="#7c2d4a" stroke-opacity="0.15"/>
    <g fill="#7c2d4a" opacity="0.75">
      <rect x="16" y="16" width="26" height="26" rx="6"/>
      <rect x="52" y="16" width="26" height="26" rx="6" opacity="0.5"/>
      <rect x="88" y="16" width="26" height="26" rx="6"/>
      <rect x="16" y="52" width="26" height="26" rx="6" opacity="0.5"/>
      <rect x="52" y="52" width="26" height="26" rx="6"/>
      <rect x="88" y="52" width="26" height="26" rx="6" opacity="0.5"/>
    </g>
  </g>
</svg>
