<svg xmlns="http://www.w3.org/2000/svg" viewBox="0 0 600 450" width="600" height="450">
  <rect width="600" height="450" fill="#fbf8f3"/>

  <g>
    <rect x="0" y="0" width="300" height="450" fill="#d8d2c4"/>
    <rect x="0" y="270" width="300" height="180" fill="#c9c2b2"/>
    <rect x="190" y="70" width="80" height="70" fill="#f1ede4" stroke="#b7ae9c" stroke-width="4"/>
    <rect x="40" y="290" width="110" height="60" fill="#9c9280"/>
    <rect x="170" y="310" width="70" height="40" fill="#8a8270"/>
  </g>

  <g>
    <rect x="300" y="0" width="300" height="450" fill="#f4ede3"/>
    <rect x="300" y="270" width="300" height="180" fill="#e6d9c8"/>
    <rect x="410" y="70" width="80" height="70" fill="#ffffff" stroke="#d99a72" stroke-width="4"/>
    <rect x="340" y="300" width="120" height="45" rx="10" fill="#c96f4a"/>
    <circle cx="500" cy="330" r="20" fill="#7c9473"/>
  </g>

  <rect x="292" y="0" width="16" height="450" fill="#ffffff"/>
  <circle cx="300" cy="225" r="26" fill="#ffffff"/>
  <path d="M290 218 l-8 7 8 7 M310 218 l8 7 -8 7" stroke="#78716c" stroke-width="3" fill="none" stroke-linecap="round" stroke-linejoin="round"/>
</svg>
