<svg xmlns="http://www.w3.org/2000/svg" viewBox="0 0 600 450" width="600" height="450">
  <defs>
    <linearGradient id="pd-bg" x1="0" y1="0" x2="1" y2="1">
      <stop offset="0%" stop-color="#0a0908"/>
      <stop offset="100%" stop-color="#1c1210"/>
    </linearGradient>
    <linearGradient id="pd-bar" x1="0" y1="1" x2="0" y2="0">
      <stop offset="0%" stop-color="#ea580c"/>
      <stop offset="100%" stop-color="#f97316"/>
    </linearGradient>
  </defs>
  <rect width="600" height="450" fill="url(#pd-bg)"/>

  <circle cx="120" cy="120" r="42" fill="#ea580c"/>
  <path d="M104 100 v40 l34 -20 z" fill="#ffffff"/>

  <text x="180" y="112" font-family="Arial, sans-serif" font-size="30" font-weight="700" fill="#ffffff">Wavelength</text>
  <text x="180" y="140" font-family="Arial, sans-serif" font-size="14" fill="#f97316" opacity="0.9">EPISODE 048</text>

  <g transform="translate(90,220)">
    <rect x="0" y="55" width="10" height="30" rx="5" fill="url(#pd-bar)"/>
    <rect x="18" y="30" width="10" height="55" rx="5" fill="url(#pd-bar)"/>
    <rect x="36" y="10" width="10" height="75" rx="5" fill="url(#pd-bar)"/>
    <rect x="54" y="40" width="10" height="45" rx="5" fill="url(#pd-bar)"/>
    <rect x="72" y="0" width="10" height="85" rx="5" fill="url(#pd-bar)"/>
    <rect x="90" y="25" width="10" height="60" rx="5" fill="url(#pd-bar)"/>
    <rect x="108" y="45" width="10" height="40" rx="5" fill="url(#pd-bar)"/>
    <rect x="126" y="15" width="10" height="70" rx="5" fill="#ffffff" opacity="0.15"/>
    <rect x="144" y="35" width="10" height="50" rx="5" fill="#ffffff" opacity="0.15"/>
    <rect x="162" y="20" width="10" height="65" rx="5" fill="#ffffff" opacity="0.15"/>
    <rect x="180" y="50" width="10" height="35" rx="5" fill="#ffffff" opacity="0.15"/>
    <rect x="198" y="10" width="10" height="75" rx="5" fill="#ffffff" opacity="0.15"/>
    <rect x="216" y="40" width="10" height="45" rx="5" fill="#ffffff" opacity="0.15"/>
    <rect x="234" y="25" width="10" height="60" rx="5" fill="#ffffff" opacity="0.15"/>
    <rect x="252" y="55" width="10" height="30" rx="5" fill="#ffffff" opacity="0.15"/>
    <rect x="270" y="15" width="10" height="70" rx="5" fill="#ffffff" opacity="0.15"/>
    <rect x="288" y="45" width="10" height="40" rx="5" fill="#ffffff" opacity="0.15"/>
    <rect x="306" y="30" width="10" height="55" rx="5" fill="#ffffff" opacity="0.15"/>
    <rect x="324" y="10" width="10" height="75" rx="5" fill="#ffffff" opacity="0.15"/>
    <rect x="342" y="50" width="10" height="35" rx="5" fill="#ffffff" opacity="0.15"/>
    <rect x="360" y="25" width="10" height="60" rx="5" fill="#ffffff" opacity="0.15"/>
    <rect x="378" y="40" width="10" height="45" rx="5" fill="#ffffff" opacity="0.15"/>
    <rect x="396" y="15" width="10" height="70" rx="5" fill="#ffffff" opacity="0.15"/>
  </g>
</svg>
