<svg xmlns="http://www.w3.org/2000/svg" viewBox="0 0 600 450" width="600" height="450">
  <defs>
    <linearGradient id="bg" x1="0" y1="0" x2="1" y2="1">
      <stop offset="0%" stop-color="#0b0d17"/>
      <stop offset="100%" stop-color="#151428"/>
    </linearGradient>
    <radialGradient id="glow1" cx="50%" cy="50%" r="50%">
      <stop offset="0%" stop-color="#8b5cf6" stop-opacity="0.55"/>
      <stop offset="100%" stop-color="#8b5cf6" stop-opacity="0"/>
    </radialGradient>
    <radialGradient id="glow2" cx="50%" cy="50%" r="50%">
      <stop offset="0%" stop-color="#d946ef" stop-opacity="0.45"/>
      <stop offset="100%" stop-color="#d946ef" stop-opacity="0"/>
    </radialGradient>
    <linearGradient id="bar" x1="0" y1="1" x2="0" y2="0">
      <stop offset="0%" stop-color="#8b5cf6"/>
      <stop offset="100%" stop-color="#e879f9"/>
    </linearGradient>
  </defs>

  <rect width="600" height="450" fill="url(#bg)"/>
  <circle cx="120" cy="120" r="180" fill="url(#glow1)"/>
  <circle cx="480" cy="200" r="160" fill="url(#glow2)"/>

  <g opacity="0.5">
    <rect x="60" y="60" width="120" height="10" rx="5" fill="#ffffff" opacity="0.25"/>
    <rect x="60" y="84" width="220" height="10" rx="5" fill="#ffffff" opacity="0.15"/>
  </g>

  <g transform="translate(60,150)">
    <rect width="480" height="220" rx="18" fill="#ffffff" opacity="0.04" stroke="#ffffff" stroke-opacity="0.12"/>
    <circle cx="28" cy="28" r="6" fill="#f87171" opacity="0.7"/>
    <circle cx="50" cy="28" r="6" fill="#facc15" opacity="0.7"/>
    <circle cx="72" cy="28" r="6" fill="#4ade80" opacity="0.7"/>
    <line x1="0" y1="50" x2="480" y2="50" stroke="#ffffff" stroke-opacity="0.12"/>

    <g transform="translate(28,150)">
      <rect x="0" y="-70" width="36" height="70" rx="6" fill="url(#bar)"/>
      <rect x="52" y="-110" width="36" height="110" rx="6" fill="url(#bar)" opacity="0.85"/>
      <rect x="104" y="-45" width="36" height="45" rx="6" fill="url(#bar)" opacity="0.7"/>
      <rect x="156" y="-130" width="36" height="130" rx="6" fill="url(#bar)"/>
      <rect x="208" y="-85" width="36" height="85" rx="6" fill="url(#bar)" opacity="0.85"/>
      <rect x="260" y="-150" width="36" height="150" rx="6" fill="url(#bar)"/>
      <rect x="312" y="-60" width="36" height="60" rx="6" fill="url(#bar)" opacity="0.7"/>
      <rect x="364" y="-100" width="36" height="100" rx="6" fill="url(#bar)" opacity="0.9"/>
    </g>
  </g>
</svg>
